{"title":"Something Wild (1986)  DVD Rip","uid":7804215,"size":745379840,"categoryP":"video","categoryS":"movies","magnet":"?xt=urn:btih:a77f3b80a711e063a933e6da2570aa56c10cb931&amp;dn=Something+Wild+%281986%29++DVD+Rip&amp;tr=udp%3A%2F%2Ftracker.openbittorrent.com%3A80&amp;tr=udp%3A%2F%2Fopen.demonii.com%3A1337&amp;tr=udp%3A%2F%2Ftracker.coppersurfer.tk%3A6969&amp;tr=udp%3A%2F%2Fexodus.desync.com%3A6969","seeders":0,"leechers":0,"uploader":"onlyjustabhi","files":1,"time":1352358433,"description":" &lt;a href=&quot;http://www.imdb.com/title/tt0091983/&quot; rel=&quot;nofollow&quot; target=&quot;_NEW&quot;&gt;http://www.imdb.com/title/tt0091983/&lt;/a&gt;\n\nGeneral\nComplete name                            : E:MoviezSomething WildSomething Wild.avi\nFormat                                   : AVI\nFormat/Info                              : Audio Video Interleave\nFile size                                : 711 MiB\nDuration                                 : 1h 53mn\nOverall bit rate                         : 875 Kbps\nWriting application                      : VirtualDubMod 1.5.10.2 (build 2540/release)\nWriting library                          : VirtualDubMod build 2540/release\n\nVideo\nID                                       : 0\nFormat                                   : MPEG-4 Visual\nFormat profile                           : Advanced Simple@L5\nFormat settings, BVOP                    : 2\nFormat settings, QPel                    : No\nFormat settings, GMC                     : 3 warppoints\nFormat settings, Matrix                  : Default (H.263)\nCodec ID                                 : XVID\nCodec ID/Hint                            : XviD\nDuration                                 : 1h 53mn\nBit rate                                 : 738 Kbps\nWidth                                    : 688 pixels\nHeight                                   : 368 pixels\nDisplay aspect ratio                     : 1.85:1\nOriginal display aspect ratio            : 1.85:1\nFrame rate                               : 23.976 fps\nOriginal frame rate                      : 25.000 fps\nColor space                              : YUV\nChroma subsampling                       : 4:2:0\nBit depth                                : 8 bits\nScan type                                : Progressive\nCompression mode                         : Lossy\nBits/(Pixel*Frame)                       : 0.122\nStream size                              : 599 MiB (84%)\nWriting library                          : XviD 1.1.2 (UTC 2006-11-01)\n\nAudio\nID                                       : 1\nFormat                                   : MPEG Audio\nFormat version                           : Version 1\nFormat profile                           : Layer 3\nMode                                     : Joint stereo\nMode extension                           : MS Stereo\nCodec ID                                 : 55\nCodec ID/Hint                            : MP3\nDuration                                 : 1h 53mn\nBit rate mode                            : Constant\nBit rate                                 : 128 Kbps\nChannel(s)                               : 2 channels\nSampling rate                            : 48.0 KHz\nCompression mode                         : Lossy\nStream size                              : 104 MiB (15%)\nAlignment                                : Aligned on interleaves\nInterleave, duration                     : 42 ms (1.00 video frame)\nInterleave, preload duration             : 504 ms\n\n","torrent":{"xt":"urn:btih:a77f3b80a711e063a933e6da2570aa56c10cb931","amp;dn":"Something+Wild+%281986%29++DVD+Rip","amp;tr":["udp%3A%2F%2Ftracker.openbittorrent.com%3A80","udp%3A%2F%2Fopen.demonii.com%3A1337","udp%3A%2F%2Ftracker.coppersurfer.tk%3A6969","udp%3A%2F%2Fexodus.desync.com%3A6969"],"infoHash":"a77f3b80a711e063a933e6da2570aa56c10cb931","infoHashBuffer":{"type":"Buffer","data":[167,127,59,128,167,17,224,99,169,51,230,218,37,112,170,86,193,12,185,49]},"announce":[],"urlList":[]}}